<svg fill="#282827" xmlns="http://www.w3.org/2000/svg" viewBox="0 0 92.48 8.94"><g id="Слой_2" data-name="Слой 2"><g id="Слой_1-2" data-name="Слой 1"><path d="M4.48,10.48A4,4,0,0,1,1.42,9.23,4.47,4.47,0,0,1,.24,6,4.61,4.61,0,0,1,1.4,2.81,4,4,0,0,1,4.46,1.54a3.85,3.85,0,0,1,2.45.76A3.28,3.28,0,0,1,8.2,4.66H6.07a1.57,1.57,0,0,0-.51-1,1.59,1.59,0,0,0-1.11-.38,1.75,1.75,0,0,0-1.53.75A3.35,3.35,0,0,0,2.4,6,3.25,3.25,0,0,0,3,8a1.79,1.79,0,0,0,1.5.75,1.69,1.69,0,0,0,1.15-.39,1.58,1.58,0,0,0,.52-1H8.26a3.29,3.29,0,0,1-1,2.2A3.76,3.76,0,0,1,4.48,10.48Z" transform="translate(-0.24 -1.54)"/><path d="M8.11,10.29,11.2,1.71h2.18l3.1,8.58H14.24l-.5-1.55h-3l-.49,1.55Zm3.12-3.07h2L12.6,5.14l-.34-1.21h0c-.14.51-.25.92-.35,1.21Z" transform="translate(-0.24 -1.54)"/><path d="M17.08,10.29V1.71h4.1a3.45,3.45,0,0,1,2.16.65,2.19,2.19,0,0,1,.84,1.82,2,2,0,0,1-1.49,2.08v0a1.78,1.78,0,0,1,1.25,1.58,8.35,8.35,0,0,1,.1,1c0,.42.05.72.08.93s.09.32.18.35v.11H22.24c-.07,0-.12-.16-.15-.35A5.78,5.78,0,0,1,22,9.13c0-.36-.06-.63-.09-.83a1.29,1.29,0,0,0-1.43-1.23H19.2v3.22ZM19.2,5.5h1.6a1.42,1.42,0,0,0,.94-.27,1,1,0,0,0,.33-.77,1.06,1.06,0,0,0-.31-.78,1.33,1.33,0,0,0-.92-.29H19.2Z" transform="translate(-0.24 -1.54)"/><path d="M27.18,10.29V3.51h-2.5V1.71h7.14v1.8H29.3v6.78Z" transform="translate(-0.24 -1.54)"/><path d="M34.91,10.29V3.51h-2.5V1.71h7.14v1.8H37v6.78Z" transform="translate(-0.24 -1.54)"/><path d="M40.36,10.29V1.71h2.12v8.58Z" transform="translate(-0.24 -1.54)"/><path d="M43.66,10.29V1.71h6.5V3.46H45.78V5h3.76V6.65H45.78V8.49h4.45v1.8Z" transform="translate(-0.24 -1.54)"/><path d="M54.92,10.39a2.13,2.13,0,0,1-1.58-.64,2.16,2.16,0,0,1-.64-1.59,2.23,2.23,0,0,1,3.79-1.6,2.2,2.2,0,0,1,.64,1.6,2.16,2.16,0,0,1-.64,1.59A2.13,2.13,0,0,1,54.92,10.39Zm0-.31a1.73,1.73,0,0,0,1.31-.55,1.89,1.89,0,0,0,.53-1.37,1.93,1.93,0,0,0-.53-1.38,1.85,1.85,0,0,0-2.63,0,1.93,1.93,0,0,0-.53,1.38,1.89,1.89,0,0,0,.53,1.37A1.74,1.74,0,0,0,54.92,10.08Zm0-.6A1.24,1.24,0,0,1,54,9.1a1.32,1.32,0,0,1-.35-1,1.34,1.34,0,0,1,.36-1,1.2,1.2,0,0,1,.93-.38A1.24,1.24,0,0,1,55.7,7a1,1,0,0,1,.39.74h-.72a.42.42,0,0,0-.14-.25.41.41,0,0,0-.29-.1.45.45,0,0,0-.4.2,1,1,0,0,0-.14.53.86.86,0,0,0,.15.52.48.48,0,0,0,.4.2.41.41,0,0,0,.31-.11.4.4,0,0,0,.14-.27h.72a1,1,0,0,1-.33.7A1.16,1.16,0,0,1,54.94,9.48Z" transform="translate(-0.24 -1.54)"/><path d="M62.38,10.29V8.47H58.55V6.61L62.35,2h2V6.93h1.19V8.47H64.34v1.82ZM60.07,6.93h2.31V4.11h0l-2.28,2.8Z" transform="translate(-0.24 -1.54)"/><path d="M68.64,10.36A2.36,2.36,0,0,1,67.19,10a1.53,1.53,0,0,1-.51-1.31V5.37h-.81V4.15h.81V2.2h1.91v2h1.12V5.37H68.59V8.25a.56.56,0,0,0,.18.47.8.8,0,0,0,.51.13h.43v1.43A4.58,4.58,0,0,1,68.64,10.36Z" transform="translate(-0.24 -1.54)"/><path d="M74.08,10.45a3.88,3.88,0,0,1-2.69-.83,3,3,0,0,1-.91-2.35V1.71H72.6V7.34c0,.93.49,1.4,1.48,1.4a1.43,1.43,0,0,0,1.08-.39,1.49,1.49,0,0,0,.37-1V1.71h2.12V7.27a3,3,0,0,1-.9,2.34A3.82,3.82,0,0,1,74.08,10.45Z" transform="translate(-0.24 -1.54)"/><path d="M80.74,9.34V7.12H78.66V5.55h2.08V3.34h1.68V5.55h2.07V7.12H82.42V9.34Z" transform="translate(-0.24 -1.54)"/><path d="M85.35,10.29v-2h2.06v2Z" transform="translate(-0.24 -1.54)"/><path d="M89.57,6.05l-.89-.64.89-1.18-1.41-.47.39-1,1.33.46V1.71H91V3.23l1.33-.46.38,1-1.4.47.89,1.18-.87.64-.88-1.24Z" transform="translate(-0.24 -1.54)"/></g></g></svg>